<mxfile host="app.diagrams.net" modified="2021-08-03T12:03:43.257Z" agent="5.0 (Windows NT 10.0; Win64; x64) AppleWebKit/537.36 (KHTML, like Gecko) Chrome/92.0.4515.107 Safari/537.36" etag="IrMqEpoexx727eqg8NCQ" version="14.9.3" type="github">
  <diagram id="SGZe965ErtHqKM07Dr74" name="Page-1">
    <mxGraphModel dx="1422" dy="705" grid="1" gridSize="10" guides="1" tooltips="1" connect="1" arrows="1" fold="1" page="1" pageScale="1" pageWidth="827" pageHeight="1169" math="0" shadow="0">
      <root>
        <mxCell id="0" />
        <mxCell id="1" parent="0" />
        <mxCell id="Kfjhutohd1mHPEdd9M0W-2" value="" style="rounded=0;whiteSpace=wrap;html=1;strokeColor=none;" parent="1" vertex="1">
          <mxGeometry x="40" y="290" width="50" height="60" as="geometry" />
        </mxCell>
        <mxCell id="Kfjhutohd1mHPEdd9M0W-3" value="" style="rounded=0;whiteSpace=wrap;html=1;strokeColor=none;" parent="1" vertex="1">
          <mxGeometry x="140" y="660" width="60" height="60" as="geometry" />
        </mxCell>
        <mxCell id="Kfjhutohd1mHPEdd9M0W-4" value="" style="rounded=0;whiteSpace=wrap;html=1;strokeColor=none;" parent="1" vertex="1">
          <mxGeometry x="660" y="300" width="100" height="60" as="geometry" />
        </mxCell>
        <mxCell id="Kfjhutohd1mHPEdd9M0W-5" value="" style="rounded=0;whiteSpace=wrap;html=1;strokeColor=none;" parent="1" vertex="1">
          <mxGeometry x="555" y="660" width="60" height="60" as="geometry" />
        </mxCell>
        <mxCell id="Kfjhutohd1mHPEdd9M0W-6" value="&lt;font face=&quot;Times New Roman&quot;&gt;&lt;span style=&quot;font-size: 14px&quot;&gt;Security&lt;/span&gt;&lt;/font&gt;" style="text;whiteSpace=wrap;html=1;" parent="1" vertex="1">
          <mxGeometry x="354" y="103" width="60" height="30" as="geometry" />
        </mxCell>
        <mxCell id="Kfjhutohd1mHPEdd9M0W-7" value="&lt;font face=&quot;Times New Roman&quot;&gt;&lt;span style=&quot;font-size: 14px&quot;&gt;Mobility&lt;/span&gt;&lt;/font&gt;" style="text;whiteSpace=wrap;html=1;" parent="1" vertex="1">
          <mxGeometry x="40" y="318" width="100" height="30" as="geometry" />
        </mxCell>
        <mxCell id="Kfjhutohd1mHPEdd9M0W-8" value="&lt;font face=&quot;Times New Roman&quot;&gt;&lt;span style=&quot;font-size: 14px&quot;&gt;Range&lt;/span&gt;&lt;/font&gt;" style="text;whiteSpace=wrap;html=1;" parent="1" vertex="1">
          <mxGeometry x="170.00000000000006" y="655" width="100" height="30" as="geometry" />
        </mxCell>
        <mxCell id="Kfjhutohd1mHPEdd9M0W-9" value="&lt;font style=&quot;font-size: 14px&quot; face=&quot;Times New Roman&quot;&gt;Less Cost&lt;/font&gt;" style="text;whiteSpace=wrap;html=1;" parent="1" vertex="1">
          <mxGeometry x="550" y="655" width="90" height="30" as="geometry" />
        </mxCell>
        <mxCell id="Kfjhutohd1mHPEdd9M0W-10" value="&lt;font face=&quot;Times New Roman&quot;&gt;&lt;span style=&quot;font-size: 14px&quot;&gt;Signal Quality&lt;/span&gt;&lt;/font&gt;" style="text;whiteSpace=wrap;html=1;" parent="1" vertex="1">
          <mxGeometry x="660" y="317" width="100" height="60" as="geometry" />
        </mxCell>
        <mxCell id="Kfjhutohd1mHPEdd9M0W-11" value="" style="rounded=1;whiteSpace=wrap;html=1;fontColor=#ffffff;fillColor=#548cc6;strokeColor=none;" parent="1" vertex="1">
          <mxGeometry x="630" y="150" width="20" height="10" as="geometry" />
        </mxCell>
        <mxCell id="Kfjhutohd1mHPEdd9M0W-12" value="&lt;font face=&quot;Times New Roman&quot; style=&quot;font-size: 14px&quot;&gt;Phone Camera&lt;/font&gt;" style="text;whiteSpace=wrap;html=1;" parent="1" vertex="1">
          <mxGeometry x="658" y="142" width="100" height="30" as="geometry" />
        </mxCell>
        <mxCell id="Kfjhutohd1mHPEdd9M0W-13" value="" style="rounded=1;whiteSpace=wrap;html=1;fontColor=#ffffff;strokeColor=none;fillColor=#91cc75;" parent="1" vertex="1">
          <mxGeometry x="630" y="168" width="20" height="10" as="geometry" />
        </mxCell>
        <mxCell id="Kfjhutohd1mHPEdd9M0W-14" value="&lt;font face=&quot;Times New Roman&quot; style=&quot;font-size: 14px&quot;&gt;HD Camera&lt;/font&gt;" style="text;whiteSpace=wrap;html=1;" parent="1" vertex="1">
          <mxGeometry x="658" y="160" width="100" height="30" as="geometry" />
        </mxCell>
        <mxCell id="Kfjhutohd1mHPEdd9M0W-15" value="" style="rounded=1;whiteSpace=wrap;html=1;fontColor=#ffffff;strokeColor=none;fillColor=#fadc58;" parent="1" vertex="1">
          <mxGeometry x="630" y="186" width="20" height="10" as="geometry" />
        </mxCell>
        <mxCell id="Kfjhutohd1mHPEdd9M0W-16" value="&lt;font face=&quot;Times New Roman&quot; style=&quot;font-size: 14px&quot;&gt;Oximeter&lt;/font&gt;" style="text;whiteSpace=wrap;html=1;" parent="1" vertex="1">
          <mxGeometry x="658" y="178" width="100" height="30" as="geometry" />
        </mxCell>
        <mxCell id="Kfjhutohd1mHPEdd9M0W-19" value="" style="rounded=1;whiteSpace=wrap;html=1;fontColor=#ffffff;strokeColor=none;fillColor=#ee6666;" parent="1" vertex="1">
          <mxGeometry x="630" y="204" width="20" height="10" as="geometry" />
        </mxCell>
        <mxCell id="Kfjhutohd1mHPEdd9M0W-20" value="&lt;font face=&quot;Times New Roman&quot; style=&quot;font-size: 14px&quot;&gt;Wearable device&lt;/font&gt;" style="text;whiteSpace=wrap;html=1;" parent="1" vertex="1">
          <mxGeometry x="658" y="196" width="100" height="30" as="geometry" />
        </mxCell>
      </root>
    </mxGraphModel>
  </diagram>
</mxfile>
